<svg width="2526" height="482" viewBox="0 0 2526 482" fill="none" xmlns="http://www.w3.org/2000/svg">
<rect width="2526" height="482"/>
<mask id="mask0_0_1" style="mask-type:luminance" maskUnits="userSpaceOnUse" x="1983" y="0" width="286" height="270">
<path d="M2268.46 0H1984V270H2268.46V0Z" fill="white"/>
</mask>
<g mask="url(#mask0_0_1)">
<mask id="mask1_0_1" style="mask-type:luminance" maskUnits="userSpaceOnUse" x="2058" y="119" width="152" height="85">
<path d="M2209.33 119.645H2058.27V203.163H2209.33V119.645Z" fill="white"/>
</mask>
<g mask="url(#mask1_0_1)">
<path d="M2209.39 119.645H2092.8C2092.8 120.219 2092.84 120.73 2092.92 121.293L2092.98 121.653C2093.2 123.101 2093.97 126.02 2094.67 127.263L2094.83 127.625C2095.14 128.349 2095.47 129.026 2095.92 129.677L2095.94 129.692C2096.16 130 2096.38 130.305 2096.6 130.621C2098.39 133.335 2100.62 135.467 2103.43 137.242L2103.71 137.417C2104.52 137.947 2105.35 138.346 2106.25 138.72L2106.63 138.875C2107.35 139.168 2108.65 139.7 2109.39 139.977C2111.79 140.621 2114.18 140.894 2116.68 140.883C2116.96 140.882 2117.25 140.881 2117.53 140.881C2118.33 140.883 2119.13 140.883 2119.92 140.881C2120.79 140.878 2121.66 140.878 2122.53 140.878C2124.04 140.879 2125.54 140.878 2127.05 140.876C2128.74 140.873 2130.43 140.871 2132.12 140.87H2132.42H2133.94C2137.5 140.869 2141.07 140.867 2144.63 140.862C2148.1 140.858 2151.57 140.855 2155.03 140.853H2155.36C2156.43 140.852 2157.51 140.852 2158.59 140.852C2160.78 140.851 2162.98 140.849 2165.17 140.848H2165.48C2172.14 140.844 2178.8 140.838 2185.46 140.83H2185.92C2185.8 141.273 2185.71 141.714 2185.64 142.167L2185.6 142.468C2185.56 142.683 2185.53 142.898 2185.5 143.113C2185.45 143.448 2184.62 148.172 2184.57 148.507C2184.33 150.143 2184.08 151.778 2183.84 153.414C2183.71 154.25 2183.59 155.086 2183.46 155.922C2183.34 156.738 2183.22 157.555 2183.09 158.372C2183.05 158.685 2182.08 164.261 2182.03 164.574C2181.8 166.091 2181.58 167.609 2181.35 169.126C2181.23 169.902 2181.12 170.678 2181 171.454C2180.89 172.212 2180.77 172.97 2180.66 173.728C2180.61 174.018 2179.68 179.355 2179.64 179.645C2179.46 180.852 2179.46 180.852 2179.04 183.626L2178.45 186.752C2178.13 188.427 2176.57 189.647 2174.74 189.647H2118.07H2088.13H2073.2H2058.35C2058.35 190.957 2058.57 191.618 2060.21 195.001C2061.93 198.166 2064.54 200.429 2067.99 201.73C2068.13 201.782 2068.67 202.016 2068.81 202.088C2069.4 202.37 2070.49 202.744 2071.13 202.82C2072.23 203.031 2073.3 203.138 2074.42 203.142C2074.71 203.141 2075 203.14 2075.28 203.14C2075.83 203.142 2076.37 203.142 2076.92 203.14C2077.51 203.139 2078.11 203.139 2078.71 203.14C2079.76 203.14 2080.81 203.14 2081.85 203.139C2083.42 203.138 2084.99 203.137 2086.56 203.137C2089.21 203.138 2091.85 203.137 2094.49 203.135C2097.12 203.134 2099.74 203.132 2102.37 203.132H2102.87H2105.35C2111.23 203.131 2117.1 203.129 2122.97 203.127C2128.69 203.124 2134.4 203.122 2140.12 203.12H2140.65L2145.96 203.119C2149.58 203.119 2153.19 203.118 2156.8 203.117H2157.3C2168.54 203.114 2179.77 203.11 2191 203.105C2191.3 201.651 2192.79 195.504 2193.08 194.05L2193.12 193.882C2193.26 193.197 2193.4 192.511 2193.54 191.826C2193.69 191.1 2193.83 190.374 2193.98 189.647C2194.04 189.371 2194.09 189.095 2194.15 188.818C2194.23 188.421 2194.31 188.023 2194.39 187.625L2194.47 187.26C2194.49 187.155 2197.25 175.431 2197.27 175.33L2197.34 174.957C2197.4 174.643 2197.47 174.328 2197.53 174.014C2197.59 173.725 2197.65 173.436 2197.71 173.146C2197.86 172.372 2198.02 171.599 2198.18 170.825C2198.3 170.23 2198.42 169.635 2198.54 169.04C2198.65 168.452 2198.77 167.865 2198.89 167.277C2198.94 167.052 2198.97 166.825 2199.03 166.604C2199.52 164.69 2199.53 164.655 2199.73 163.723L2199.75 163.628C2199.88 162.979 2199.95 162.979 2200.29 161.579C2200.34 161.305 2200.4 161.03 2200.46 160.757C2200.54 160.367 2200.62 159.977 2200.7 159.586C2200.8 159.084 2200.9 158.581 2201.01 158.079C2201.09 157.685 2201.17 157.291 2201.25 156.896C2201.29 156.707 2201.33 156.517 2201.37 156.328C2201.6 155.242 2202.67 150.742 2202.89 149.656L2202.92 149.546C2203.02 149.027 2203.13 148.508 2203.24 147.989C2203.36 147.446 2203.47 146.904 2203.58 146.361C2203.63 146.153 2203.67 145.945 2203.71 145.736C2203.84 145.141 2209.26 120.24 2209.39 119.645Z" fill="url(#paint0_linear_0_1)"/>
</g>
<mask id="mask2_0_1" style="mask-type:luminance" maskUnits="userSpaceOnUse" x="2031" y="67" width="191" height="109">
<path d="M2221.62 67.0323H2031.55V175.726H2221.62V67.0323Z" fill="white"/>
</mask>
<g mask="url(#mask2_0_1)">
<path d="M2221.62 66.999H2031.55C2031.55 67.568 2031.55 67.568 2031.59 67.847L2031.65 68.1428L2031.72 68.4811L2031.79 68.8439C2031.85 69.1007 2031.9 69.3576 2031.95 69.6144C2032.03 70.0166 2032.12 70.4184 2032.2 70.821C2032.25 71.0836 2032.31 71.3467 2032.36 71.6094L2032.44 71.9905L2032.44 71.9948C2032.56 72.5814 2032.68 73.1655 2032.84 73.7419C2033.19 74.8951 2033.44 76.06 2033.69 77.2362C2033.74 77.4845 2033.79 77.7327 2033.84 77.9814C2033.98 78.6349 2034.12 79.2889 2034.25 79.9428C2034.39 80.6194 2034.54 81.2956 2034.68 81.9721C2034.95 83.2878 2035.23 84.6039 2035.5 85.92L2035.59 86.3413C2035.66 86.662 2036.21 88.719 2036.27 89.039C2036.32 89.2681 2036.36 89.4973 2036.41 89.7264C2036.96 92.444 2038.23 97.9671 2038.83 100.675C2038.87 100.897 2038.92 101.12 2038.97 101.342C2039.09 101.926 2039.21 102.51 2039.33 103.094C2039.46 103.698 2039.59 104.302 2039.71 104.907C2039.99 106.209 2041.13 111.015 2041.4 112.317C2041.53 112.943 2041.66 113.57 2041.79 114.196C2041.93 114.844 2042.07 115.493 2042.2 116.142C2042.49 117.539 2043.71 122.796 2044 124.192L2044 124.204C2044.08 124.578 2044.16 124.952 2044.23 125.327C2044.33 125.79 2044.42 126.253 2044.51 126.716L2044.62 127.25C2044.81 128.156 2045.01 128.668 2045.25 129.944C2045.41 130.749 2045.61 131.296 2045.76 131.983C2045.82 132.297 2045.89 132.612 2045.95 132.925C2046.06 133.436 2046.17 133.947 2046.27 134.458C2046.77 136.842 2047.31 139.19 2048.02 141.524C2048.82 144.136 2048.47 144.24 2052.35 150.821C2052.51 151.089 2052.68 151.358 2052.84 151.627C2054.03 153.612 2055.38 155.431 2056.87 157.219C2057.02 157.392 2057.16 157.565 2057.31 157.738C2058.22 158.854 2059.21 159.866 2060.26 160.864C2060.55 161.138 2060.84 161.411 2061.13 161.686C2061.32 161.869 2061.51 162.052 2061.7 162.234L2061.98 162.496C2062.51 162.999 2063 163.474 2063.57 163.937C2064.01 164.294 2064.48 164.629 2064.89 164.967C2066.32 165.999 2067.24 166.721 2068.84 167.694L2069.11 167.873L2069.49 168.077L2069.9 168.306C2070.19 168.463 2070.47 168.622 2070.76 168.784C2072.4 169.733 2074.03 170.643 2075.82 171.31C2076.27 171.475 2076.71 171.64 2077.14 171.845C2077.9 172.221 2078.66 172.539 2079.48 172.803L2079.91 172.938C2081.65 173.486 2083.41 173.91 2085.19 174.315C2085.48 174.38 2085.78 174.448 2086.07 174.52C2086.78 174.749 2087.46 174.902 2088.2 175.018L2088.67 175.089C2092.28 175.676 2095.9 175.699 2099.54 175.691C2100.29 175.691 2101.04 175.691 2101.79 175.691C2103.09 175.691 2104.39 175.691 2105.69 175.688C2107.58 175.686 2109.48 175.685 2111.37 175.685C2114.44 175.684 2117.51 175.683 2120.58 175.68C2123.57 175.677 2126.56 175.676 2129.55 175.673H2130.11C2131.03 175.673 2131.96 175.673 2132.89 175.672C2140.75 175.669 2148.61 175.665 2156.47 175.658L2156.5 175.246L2156.54 174.706C2156.59 174.023 2156.64 173.341 2156.68 172.657L2156.7 172.339C2156.72 171.969 2156.75 171.6 2156.77 171.23L2156.79 170.841C2156.84 170.152 2156.88 169.463 2156.92 168.774C2156.96 168.06 2157.01 167.346 2157.05 166.632C2157.09 166.07 2157.12 165.508 2157.16 164.947C2157.17 164.678 2157.19 164.408 2157.21 164.138C2157.23 163.758 2157.25 163.377 2157.28 162.997L2157.3 162.64C2157.34 161.917 2157.37 161.197 2157.37 160.472L2157.37 160.182C2157.37 159.841 2157.37 159.501 2157.36 159.16C2150.01 159.152 2142.65 159.142 2135.29 159.128L2133.21 159.125L2132.62 159.124L2132.08 159.123C2129.22 159.118 2126.35 159.114 2123.48 159.111C2120.53 159.108 2117.57 159.103 2114.62 159.097C2112.8 159.093 2110.94 159.085 2109.12 159.083C2107.86 159.083 2106.68 159.036 2105.4 159.032C2104.67 159.03 2104.61 159.032 2102.39 158.993C2099.06 158.935 2098.67 158.876 2095.16 158.525C2091.85 157.81 2086.5 156.353 2083.5 154.849C2082.91 154.548 2082.37 154.233 2081.77 153.9C2081.68 153.842 2081.26 153.622 2081.18 153.566C2080.26 153.086 2079.41 152.418 2078.58 151.813L2078.13 151.48C2076.68 150.417 2075.37 149.245 2074.16 147.942C2073.99 147.746 2073.81 147.551 2073.64 147.356C2071.62 145.248 2069.94 142.9 2068.54 140.379L2068.39 140.102C2067.05 137.642 2066.2 135.061 2065.53 132.37L2065.43 131.987C2065.35 131.486 2064.78 128.906 2064.64 128.154C2064.61 127.955 2062.54 114.97 2062.51 114.77C2062.48 114.553 2062.44 114.334 2062.41 114.116L2062.36 113.756L2062.18 112.542L2062.05 111.676L2061.71 109.405L2061.36 107.052L2060.68 102.476L2060.61 101.986C2060.59 101.852 2060.13 99.6449 2060.11 99.5151C2059.99 98.648 2059.84 97.7855 2059.68 96.9242L2059.62 96.5972L2059.5 95.9417L2059.41 95.4437C2071.46 95.446 2083.51 95.4483 2095.57 95.4499H2096.11C2100.04 95.4503 2103.96 95.4507 2107.88 95.4511L2113.66 95.4515H2114.24C2120.47 95.4522 2126.69 95.453 2132.92 95.4546C2139.32 95.4557 2145.73 95.4569 2152.13 95.4569L2154.85 95.4573H2155.39C2158.25 95.4573 2161.12 95.4581 2163.98 95.4589C2166.87 95.4596 2169.77 95.46 2172.66 95.46C2174.38 95.4596 2176.1 95.46 2177.82 95.4608C2178.98 95.4612 2180.13 95.4616 2181.29 95.4612H2181.51C2182.1 95.4608 2182.68 95.4608 2183.27 95.4612C2183.87 95.4616 2184.48 95.462 2185.09 95.4616C2185.21 95.4616 2185.34 95.4616 2185.46 95.4612H2185.75L2186.37 95.4624C2186.56 95.462 2187.78 95.4624 2187.91 95.4624C2191.41 95.2476 2195.09 94.2153 2198.4 93.1681C2205.37 91.0772 2212.55 85.2072 2216.36 79.354L2216.53 79.0882C2217.69 77.3262 2218.72 75.5697 2219.54 73.6406C2219.68 73.3082 2219.82 72.9793 2219.98 72.6538C2220.3 71.9816 2220.56 71.3136 2220.78 70.6016L2220.89 70.2259C2221.22 69.1518 2221.43 68.1128 2221.62 66.999Z" fill="url(#paint1_linear_0_1)"/>
</g>
<path d="M2007.3 0.138207C2002.61 0.648511 1998.08 2.34952 1994.38 5.00026C1988.53 9.1961 1984.93 15.3623 1984.17 22.5066C1983.94 24.4769 1983.94 245.552 1984.15 247.479C1984.51 250.768 1985.41 253.731 1986.83 256.367C1988.29 259.089 1989.84 261.102 1991.96 263.029C1995.8 266.517 2000.23 268.643 2005.8 269.678C2007.18 269.933 2010.94 269.947 2124.81 269.99C2208.82 270.018 2242.95 269.99 2244.34 269.876C2251.54 269.309 2257.82 266.247 2262.3 261.158C2265.74 257.275 2267.69 252.838 2268.29 247.592C2268.51 245.751 2268.51 24.4627 2268.3 22.5207C2267.66 16.6239 2265.24 11.6059 2261.08 7.52344C2256.81 3.32761 2251.27 0.776086 2244.98 0.138207C2243.2 -0.046069 2009.01 -0.046069 2007.3 0.138207ZM2220.96 67.5549C2220.9 67.7818 2220.6 68.76 2220.31 69.7378C2219.21 73.5512 2216.95 77.8888 2214.36 81.1773C2208.55 88.5341 2200.32 93.2969 2190.51 94.9836C2189.27 95.2007 2188.01 95.3102 2186.75 95.311L2124.06 95.3523C2088.56 95.3667 2059.44 95.4377 2059.38 95.4942C2059.26 95.6076 2059.89 100.115 2060.38 102.681C2060.5 103.305 2061.04 106.721 2061.57 110.265C2062.11 113.808 2062.65 117.225 2062.77 117.848C2062.89 118.472 2063.4 121.661 2063.89 124.937C2064.9 131.541 2064.86 131.343 2065.77 134.249C2066.62 136.942 2067.11 138.133 2068.4 140.458C2070.09 143.548 2071.92 145.929 2074.64 148.594C2080.24 154.066 2087.81 157.695 2096.07 158.828C2097.71 159.056 2100.25 159.084 2127.39 159.127L2156.21 159.182C2156.6 159.183 2156.91 159.483 2156.9 159.849C2156.9 160.217 2156.68 163.86 2156.42 167.958C2156.15 172.141 2152.52 175.404 2148.13 175.411L2126.15 175.442C2096.02 175.484 2093.16 175.442 2089.74 174.959C2083.66 174.109 2077.7 172.238 2072.49 169.573C2068.59 167.561 2064.52 164.711 2061.37 161.805C2057.53 158.247 2055 155.144 2052.17 150.522C2051.11 148.807 2049.37 145.065 2048.51 142.654C2047.48 139.749 2047.09 138.346 2046.42 135.142C2046.16 133.894 2045.72 131.881 2045.43 130.676C2045.13 129.472 2044.45 126.339 2043.88 123.731C2043.31 121.123 2042.31 116.529 2041.64 113.525C2040.98 110.52 2039.94 105.743 2039.33 102.893C2038.7 100.044 2038.13 97.4786 2038.04 97.1953C2037.89 96.6283 2036.22 89.0162 2034.4 80.5393C2033.79 77.7185 2033.19 75.0396 2033.07 74.5859C2032.83 73.7211 2031.49 67.5125 2031.49 67.3001C2031.49 67.2291 2070.2 67.1722 2126.29 67.1722H2220.67C2220.88 67.1722 2221.02 67.3667 2220.96 67.5549ZM2209.32 119.862C2209.32 120.003 2208.9 121.931 2208.41 124.156C2207.19 129.699 2205.37 137.906 2203.95 144.426C2203.29 147.432 2202.72 149.984 2202.68 150.097C2202.65 150.21 2202.07 152.79 2201.41 155.838C2200.16 161.55 2198.75 167.958 2196.56 177.88C2193.53 191.601 2192.56 196.01 2191.24 202.077C2191.16 202.513 2190.76 202.829 2190.29 202.829H2133.43C2098.08 202.829 2075.09 202.771 2074.04 202.686C2073.09 202.615 2071.65 202.389 2070.83 202.19C2069.2 201.794 2066.58 200.631 2065.23 199.71C2064.2 199.001 2062.38 197.314 2061.65 196.379C2060.41 194.819 2058.96 191.913 2058.59 190.255C2058.53 190.014 2058.73 189.787 2058.98 189.787L2118.41 189.759L2174.57 189.719C2176.73 189.717 2178.57 188.211 2178.89 186.172C2179.21 184.216 2180 179.184 2180.65 174.973C2181.31 170.764 2181.92 166.993 2182 166.611C2182.09 166.214 2182.67 162.685 2183.27 158.743C2183.88 154.803 2184.75 149.26 2185.21 146.411C2185.66 143.562 2186.03 141.123 2186.03 140.982C2186.03 140.755 2184.25 140.741 2150.69 140.741C2127.44 140.741 2114.87 140.684 2113.98 140.599C2112.54 140.429 2109.92 139.82 2108.19 139.225C2102.97 137.453 2097.86 133.03 2095.47 128.224C2094.62 126.509 2093.68 123.816 2093.39 122.314C2093.13 120.825 2093.02 119.804 2093.13 119.691C2093.17 119.648 2119.33 119.62 2151.27 119.62C2206.46 119.62 2209.32 119.634 2209.32 119.862Z" fill="url(#paint2_linear_0_1)"/>
</g>
<path d="M1805.71 69.2C1805.71 81.7334 1806.24 89.3334 1807.04 89.3334C1807.85 89.3334 1808.38 87.2 1808.38 84.6667C1808.38 77.8667 1812.79 70.1334 1818.66 66.5334C1823.34 63.6 1825.47 63.3334 1843.5 62.9334L1863.14 62.4V134V205.6L1858.59 210.133C1854.72 214 1850.98 215.467 1846.84 214.8C1846.17 214.8 1845.77 215.333 1845.77 216C1845.77 216.8 1858.46 217.333 1881.3 217.333C1904.54 217.333 1916.42 216.933 1915.89 216C1915.49 215.2 1913.35 214.667 1911.21 214.667C1906.41 214.667 1899.86 208.4 1898.66 202.533C1898.26 200.267 1897.86 167.867 1897.86 130.533V62.6667H1915.35C1925.1 62.6667 1935.25 63.3334 1938.06 64.1334C1945.8 66.5334 1951.41 73.2 1953.41 82.2667C1955.02 89.7334 1955.02 89.2 1955.15 69.8667L1955.28 49.7334L1946.34 51.4667C1939.79 52.8 1921.76 53.2 1881.7 53.3334C1831.88 53.3334 1817.73 52.6667 1808.11 49.8667C1805.84 49.2 1805.71 50.8 1805.71 69.2Z" fill="url(#paint3_linear_0_1)"/>
<path d="M1636.1 54.6667C1636.1 55.3334 1637.84 56 1640.11 56C1642.64 56 1645.72 57.4667 1648.39 59.8667L1652.79 63.7334V135.333V206.933L1648.39 210.8C1645.72 213.2 1642.64 214.667 1640.11 214.667C1637.84 214.667 1636.1 215.2 1636.1 216C1636.1 216.8 1648.52 217.333 1670.82 217.333C1693.13 217.333 1705.55 216.8 1705.55 216C1705.55 215.2 1703.81 214.667 1701.54 214.667C1699 214.667 1695.93 213.2 1693.26 210.8L1688.85 206.933L1688.45 135.467L1688.05 64L1695.13 63.8667C1713.83 63.3334 1721.31 65.6 1727.31 73.6C1731.99 79.8667 1733.99 87.2 1734.13 98C1734.13 120.8 1722.24 134.667 1702.34 134.667C1695.93 134.667 1694.06 136.533 1699.27 137.867C1704.75 139.2 1709.15 145.733 1718.77 166.667C1729.99 190.933 1736.13 200.267 1744.81 206.267C1755.36 213.467 1766.18 216.133 1789.42 216.933C1804.24 217.467 1809.72 217.333 1809.72 216.267C1809.72 215.333 1808.11 214.667 1806.11 214.667C1800.23 214.667 1791.42 209.467 1784.88 202.267C1781.54 198.4 1772.86 186.533 1765.64 175.867C1753.22 157.467 1740.94 144 1736.8 144C1732.52 144 1735.46 141.867 1742.67 139.733C1752.56 136.8 1759.9 130.4 1765.78 119.733C1770.18 111.733 1770.32 110.8 1770.32 97.3334C1770.32 84.5334 1770.05 82.8 1766.71 77.2C1759.5 64.9334 1748.95 58.4 1731.05 55.2C1718.63 53.0667 1636.1 52.5334 1636.1 54.6667Z" fill="url(#paint4_linear_0_1)"/>
<path d="M1524.45 56.2667C1523.25 60.1334 1517.51 73.8667 1511.9 86.6667C1506.16 99.4667 1492 131.333 1480.51 157.333C1469.03 183.333 1458.35 206.133 1456.74 207.733C1453 211.867 1447.39 214.667 1443.25 214.667C1441.38 214.667 1439.51 215.2 1439.11 216C1438.58 216.933 1446.86 217.333 1463.02 217.333C1476.64 217.333 1487.86 216.8 1487.86 216.267C1487.86 215.733 1485.86 214.667 1483.59 214C1480.78 213.2 1478.51 211.2 1477.44 209.067C1475.84 205.6 1476.24 203.867 1482.78 188.4L1489.86 171.333L1517.51 170.933L1545.02 170.667L1551.96 188C1558.11 203.867 1558.64 205.733 1557.04 209.067C1555.97 211.2 1553.57 213.2 1551.03 214C1548.63 214.667 1546.62 215.733 1546.62 216.267C1546.62 216.8 1563.18 217.333 1583.48 217.333C1617.4 217.333 1627.02 216.267 1613.4 214.133C1605.25 212.8 1600.31 206.8 1591.76 187.867C1587.62 178.8 1572.13 144.933 1557.31 112.667C1542.48 80.4 1530.06 52.9334 1529.66 51.6C1528.46 47.6 1526.86 49.0667 1524.45 56.2667ZM1530.33 134L1541.01 160.667L1518.31 161.067C1505.76 161.2 1495.21 161.2 1494.94 160.8C1494.67 160.533 1498.94 149.333 1504.55 135.867C1510.3 122.4 1515.37 109.867 1516.04 108.133C1516.84 106.267 1517.78 105.333 1518.58 106.133C1519.11 106.8 1524.45 119.333 1530.33 134Z" fill="url(#paint5_linear_0_1)"/>
<path d="M1332.27 52.5333C1311.57 56.5333 1297.28 63.6 1284.86 76C1269.37 91.3333 1262.16 110.267 1262.16 135.333C1262.16 164.667 1272.71 187.2 1293.41 202C1309.7 213.6 1332.01 220 1356.31 220C1382.09 220 1399.85 213.467 1414.14 199.067L1422.55 190.533L1421.75 175.6C1421.35 167.333 1420.68 158 1420.15 154.667L1419.35 148.667L1416.41 160.933C1407.6 195.867 1390.5 210.667 1358.85 210.667C1320.66 210.667 1297.42 178.267 1299.95 128.667C1300.49 120.533 1301.82 110.4 1303.03 106C1308.1 87.2 1319.85 72.2667 1335.21 64.9333C1343.76 60.9333 1345.09 60.6667 1359.65 60.6667C1378.08 60.8 1386.5 63.4667 1396.91 72.8C1403.19 78.4 1413.07 94.8 1413.07 99.4667C1413.07 100.4 1413.74 101.6 1414.41 102C1415.21 102.533 1415.74 95.8667 1415.74 82.9333V62.9333L1408.93 60.1333C1394.64 54 1382.62 51.7333 1361.66 51.2C1348.43 50.9333 1338.42 51.3333 1332.27 52.5333Z" fill="url(#paint6_linear_0_1)"/>
<path d="M1005.88 69.8667C1006.01 89.2 1006.01 89.7334 1007.61 82.2667C1009.62 73.0667 1015.76 66 1023.37 64C1026.04 63.2 1036.06 62.8 1045.41 62.9334L1062.5 63.3334L1062.9 129.333C1063.17 165.6 1062.9 197.867 1062.5 200.933C1061.43 208.133 1055.29 214.667 1049.82 214.667C1047.68 214.667 1045.54 215.2 1045.14 216C1044.61 216.933 1056.49 217.333 1079.73 217.333C1102.57 217.333 1115.26 216.8 1115.26 216C1115.26 215.2 1113.25 214.667 1110.71 214.667C1107.24 214.667 1105.24 213.6 1102.03 210L1097.89 205.2V133.867V62.4L1117.66 62.9334C1135.55 63.3334 1137.69 63.6 1142.37 66.5334C1148.24 70.1334 1152.65 77.8667 1152.65 84.6667C1152.65 87.2 1153.32 89.3334 1153.98 89.3334C1154.79 89.3334 1155.32 81.7334 1155.32 69.2C1155.32 50.8 1155.19 49.2 1153.05 49.8667C1143.3 52.6667 1129.14 53.3334 1079.33 53.3334C1039.27 53.2 1021.24 52.8 1014.83 51.4667L1005.74 49.7334L1005.88 69.8667Z" fill="url(#paint7_linear_0_1)"/>
<path d="M834.8 54.6667C834.8 55.3334 836.803 56 839.341 56C842.813 56 844.816 57.0667 848.022 60.6667L852.162 65.4667V135.333V205.2L848.022 210C844.816 213.6 842.813 214.667 839.341 214.667C836.803 214.667 834.8 215.2 834.8 216C834.8 216.8 847.487 217.333 870.324 217.333C893.562 217.333 905.448 216.933 904.914 216C904.513 215.2 902.644 214.667 900.774 214.667C898.904 214.667 895.966 213.6 893.963 212.4C887.018 207.733 886.885 206.933 886.885 132.667V64L893.963 63.8667C911.458 63.3334 918.803 65.3334 925.214 72.2667C931.891 79.3334 934.829 93.8667 932.292 107.2C929.086 124.533 920.005 133.467 904.914 134.4C896.233 134.933 893.829 136.4 898.771 138C902.644 139.2 909.321 147.333 911.859 153.733C913.06 156.8 918.135 167.467 923.21 177.467C930.689 192.533 933.494 196.8 939.637 202.4C951.389 213.2 966.881 217.333 995.194 217.333C1008.55 217.333 1012.96 215.6 1002.94 214.267C991.989 212.8 983.708 204.4 963.142 173.733C951.656 156.533 941.774 145.733 936.699 144.533C932.158 143.333 932.959 141.733 938.569 140.667C956.598 137.333 969.819 119.2 969.953 98C969.953 84 967.682 78 959.002 69.2C950.722 60.8 942.174 56.8 927.217 54.6667C915.064 52.9334 834.8 52.9334 834.8 54.6667Z" fill="url(#paint8_linear_0_1)"/>
<path d="M724.087 54.9334C723.152 58.1334 717.944 70.5334 712.602 82.6667C707.26 94.8 695.908 120.533 687.227 140C661.185 199.333 658.514 204.933 654.775 208.4C650.101 212.667 646.094 214.667 641.954 214.667C640.084 214.667 638.482 215.2 638.482 216C638.482 216.8 647.697 217.333 663.322 217.333C679.482 217.333 687.762 216.933 687.227 216C686.827 215.2 685.224 214.667 683.755 214.667C680.016 214.667 675.876 209.867 676.009 205.6C676.009 203.6 678.947 195.067 682.42 186.667L688.83 171.333H716.475H744.253L750.797 187.333C754.403 196.133 757.341 204.267 757.341 205.467C757.341 209.067 752.133 214.667 748.527 214.667C746.791 214.667 745.322 215.2 745.322 216C745.322 216.8 758.41 217.333 782.048 217.333C805.686 217.333 818.774 216.8 818.774 216C818.774 215.2 817.172 214.667 815.168 214.667C810.227 214.667 803.817 210.667 799.81 205.067C797.94 202.667 792.865 192.533 788.325 182.667C783.918 172.8 769.895 142.133 757.341 114.667C744.654 87.2 732.902 61.2 731.032 56.9334C729.162 52.8 727.159 49.3334 726.625 49.3334C726.09 49.3334 724.889 51.8667 724.087 54.9334ZM729.162 133.2C735.172 148.133 739.846 160.667 739.579 160.933C739.312 161.2 728.761 161.2 716.208 161.067L693.371 160.667L704.722 133.6C710.866 118.667 715.941 105.733 715.941 104.933C715.941 101.333 719.012 107.733 729.162 133.2Z" fill="url(#paint9_linear_0_1)"/>
<path d="M447.505 52.2667C447.505 54.2667 437.222 134.4 431.613 176.667L427.74 205.867L422.932 210.267C419.46 213.467 416.922 214.667 413.584 214.667C411.046 214.667 408.509 215.2 408.108 216C407.574 216.933 415.987 217.333 432.414 217.333C455.518 217.2 457.121 217.067 452.313 215.333C446.971 213.467 445.235 211.867 444.166 207.333C443.499 204.933 452.179 122.933 453.114 122C453.515 121.467 455.518 124.8 491.443 184.933C503.329 204.933 513.612 221.333 514.414 221.333C515.082 221.333 515.616 220 515.616 218.267C515.749 211.6 521.091 201.6 560.756 133.6C564.762 126.8 568.234 121.333 568.502 121.733C568.769 122 571.173 141.333 573.71 164.8C578.251 206.4 578.384 207.467 575.98 210.667C574.511 212.533 571.44 214.667 568.902 215.6C565.163 216.933 570.772 217.2 600.153 217.2C623.658 217.333 635.677 216.933 635.143 216C634.742 215.2 632.205 214.667 629.801 214.667C624.593 214.667 616.179 208.267 615.11 203.467C614.443 200.933 603.225 118 597.081 70.9334C594.811 53.3334 594.01 49.3334 592.541 50.8C592.273 51.0667 580.521 71.0667 566.365 95.3334C552.342 119.467 536.85 146.133 531.909 154.4C527.101 162.667 522.694 168.933 522.16 168.4C521.625 167.867 512.01 152.267 500.792 134C455.118 59.0667 449.909 50.6667 448.707 50.6667C448.039 50.6667 447.505 51.4667 447.505 52.2667Z" fill="url(#paint10_linear_0_1)"/>
<path d="M312.219 52.1334C305.141 53.8667 296.594 58.2667 291.519 63.2C276.161 77.6 274.424 106.4 287.913 122.533C290.05 124.933 305.675 136.133 322.903 147.467C354.955 168.533 358.427 171.6 360.164 181.067C362.3 192.133 352.551 205.867 340.265 209.333C331.05 211.867 314.623 210.533 306.61 206.667C293.789 200.533 285.108 188.133 283.639 174.133C283.239 170 282.304 167.067 281.77 167.467C279.232 168.933 275.226 186 275.226 195.2C275.226 203.467 275.626 205.2 278.297 207.733C288.447 217.2 321.167 222.8 342.802 218.8C362.167 215.067 376.056 205.333 382.867 190.4C386.206 183.067 386.606 180.4 386.606 170C386.606 156.133 383.935 148.933 375.655 140.933C372.984 138.4 358.962 128.667 344.672 119.333C312.62 98.6667 307.812 94.9334 305.809 88C304.473 83.6 304.607 81.7334 306.476 76.6667C311.017 64.8 322.502 59.2 339.864 60.2667C355.756 61.3334 366.708 69.4667 368.31 81.3334C369.512 89.8667 370.981 87.4667 371.916 75.6C372.45 69.6 373.118 62.2667 373.519 59.3334L374.32 53.8667L355.089 52.2667C333.587 50.4 319.698 50.4 312.219 52.1334Z" fill="url(#paint11_linear_0_1)"/>
<path d="M2522.37 480C2524.31 480 2525.88 478.433 2525.88 476.5C2525.88 474.567 2524.31 473 2522.37 473C2520.43 473 2518.87 474.567 2518.87 476.5C2518.87 478.433 2520.43 480 2522.37 480Z" fill="#EC221F"/>
<path d="M2449.95 400.8C2453.29 404.133 2453.56 407.067 2453.16 441.6C2452.76 471.6 2452.49 474.667 2450.22 477.2L2447.68 480H2456.1H2464.64L2461.7 477.333C2458.77 474.667 2458.77 473.867 2458.77 437.333V400H2464.51C2482.54 400.133 2491.75 409.467 2488.82 424.933C2487.75 431.067 2480.4 438.667 2475.73 438.667C2468.38 438.667 2467.71 440 2472.66 445.333C2475.06 448.133 2480.13 454.8 2483.87 460.267C2491.22 471.2 2497.23 476.933 2502.3 478C2504.04 478.4 2507.11 479.067 2509.25 479.467C2512.45 480.133 2512.32 479.867 2507.65 476.667C2501.64 472.533 2500.3 471.2 2488.68 455.6C2483.74 449.2 2478.8 444 2478.3 443.5C2476.8 441.5 2477.73 441.6 2481.2 440.667C2486.95 439.333 2490.55 436.4 2493.49 430.667C2496.96 423.733 2496.96 414 2493.49 408.267C2488.95 400.933 2482 398.667 2463.71 398.667C2449.28 398.667 2448.08 398.8 2449.95 400.8Z" fill="#EC221F"/>
<path d="M2381.64 397H2399.17H2420.71C2423.21 397 2422.71 396.9 2422.71 401.5C2422.71 406.1 2422.98 407 2420.71 403.5C2418.43 400 2412.16 400 2401.07 400H2401.07H2390.66V419.333V438.667H2401.87C2410.42 438.667 2413.63 438.133 2415.23 436.533C2417.23 434.667 2417.37 434.933 2417.37 439.333C2417.37 443.733 2417.23 444 2415.23 442.133C2413.63 440.533 2410.42 440 2401.87 440H2390.66V458.8L2390.66 477L2403.74 476.933C2410.19 477 2418.19 476.762 2420.71 473C2422.71 470 2422.71 470 2422.71 474.5C2422.71 479 2423.21 479.467 2420.71 479.467H2401.47H2380.11L2382.78 476.133C2385.31 473.067 2385.45 470.8 2385.31 436.4C2385.18 416.4 2384.65 400 2383.65 399C2383.15 398 2380.64 397 2381.64 397Z" fill="#EC221F"/>
<path d="M2288.49 402C2287.49 400 2284.48 398.8 2285.67 398.8H2292.5H2300.51C2302.51 398.8 2298.51 400 2299.01 402C2299.37 403.455 2322.28 468 2323.88 468C2324.42 468 2327.09 462.8 2329.62 456.267C2332.16 449.867 2337.37 437.2 2341.24 428C2349.12 409.2 2350.09 404 2350.59 402C2351.09 400 2347.09 398.667 2348.59 398.667H2355.53H2361.61C2363.11 398.667 2358.6 400 2357.6 402C2356.6 403.5 2354.87 408 2351.39 415.333C2347.79 422.667 2343.78 431.6 2342.45 435.067C2340.98 438.533 2338.57 444 2336.97 447.067C2335.37 450.133 2331.63 458.8 2328.56 466.267L2325.75 473.133L2323.15 479.516C2323.02 479.819 2322.81 479.861 2322.65 479.578C2322.26 478.924 2321.41 477.255 2319.54 473C2315.17 463.057 2303.45 435.667 2294.5 415C2291.3 407.667 2292 409 2291.5 408C2291 407 2289.49 403.5 2288.49 402Z" fill="#EC221F"/>
<path d="M2226.39 397H2243.92H2265.45C2267.96 397 2267.46 396.9 2267.46 401.5C2267.46 406.1 2267.73 407 2265.45 403.5C2263.18 400 2256.91 400 2245.82 400H2235.41V419.333V438.667H2246.62C2255.17 438.667 2258.38 438.133 2259.98 436.533C2261.98 434.667 2262.12 434.933 2262.12 439.333C2262.12 443.733 2261.98 444 2259.98 442.133C2258.38 440.533 2255.17 440 2246.62 440H2235.41V458.8L2235.41 477L2248.49 476.933C2254.94 477 2262.94 476.762 2265.45 473C2267.46 470 2267.46 470 2267.46 474.5C2267.46 479 2267.96 479.467 2265.45 479.467H2246.22H2224.85L2227.53 476.133C2230.06 473.067 2230.2 470.8 2230.06 436.4C2229.93 416.4 2229.4 400 2228.39 399C2227.89 398 2225.39 397 2226.39 397Z" fill="#EC221F"/>
<path d="M2095.24 435.7C2095.65 471.834 2094.18 473.5 2092.84 476.767C2092.15 478.454 2087.62 481.5 2089.67 481.5C2093.37 481.5 2099.48 481.5 2102.19 481.5C2105.7 481.5 2103.34 480.805 2101.66 477.967C2100.19 475.5 2099.26 471.3 2098.58 444.634C2098.06 424.233 2098.18 413.834 2099.12 413.834C2100.32 413.834 2135.98 452.6 2156.28 475C2160.28 479.421 2162.79 483.464 2162.79 480C2162.79 470.233 2162.78 456.007 2162.69 440.634C2162.55 418.5 2161.79 405.5 2163.29 402C2164.44 399.324 2169.3 397 2165.79 397C2162.29 397 2160.78 397 2155.28 397C2149.77 397 2155.42 400.187 2156.78 402C2158.28 404 2158.33 406.367 2158.41 433.834C2158.47 451.033 2158.8 464.958 2157.75 464.767C2156.28 464.5 2149.27 457 2140.65 447.3C2128.71 433.849 2121.72 426.5 2109.7 413C2098.74 400.687 2094.84 394.5 2094.84 398.5C2094.84 412 2095.08 421.173 2095.24 435.7Z" fill="#EC221F"/>
<path d="M2033.11 405.867C2016.15 447.467 2003.88 471.562 2001.99 475.467C2000.52 478.5 1997.31 479.2 1999.52 479.2C2002.53 479.2 2012.28 479.2 2012.28 479.2C2017.55 479.2 2013.24 478.245 2011.04 475.467C2010.04 474.2 2010.27 471.333 2014.81 460.133C2014.81 460.133 2015.94 455.804 2018.05 452C2019.05 450.2 2035.21 450.2 2035.21 450.2C2035.21 450.2 2052.11 450.147 2052.74 452C2054.11 456 2055.61 460.133 2055.61 460.133C2059.62 470 2061.4 473 2059.62 475.467C2058.15 477.5 2053.11 478.8 2059.12 478.8C2059.12 478.8 2069.14 478.8 2075.05 478.8C2076.75 478.8 2072.27 476.467 2070.64 475.467C2065.13 472.085 2064.63 468 2040.86 407.2C2040.86 407.2 2037.38 397.067 2036.72 397.067C2036.05 397.067 2033.11 405.867 2033.11 405.867ZM2043.79 428.267C2047.53 438.267 2049.24 442.7 2050.74 446.7C2051.3 448.2 2044.13 448.2 2035.72 448.2C2027.3 448.2 2020.26 448.2 2020.69 446.7C2021.69 443.2 2022.43 441.067 2025.5 433.333C2028.2 425.7 2032.58 413.467 2032.58 413.467C2033.11 411.7 2034.08 409.867 2036.05 409.867C2036.58 409.867 2039.92 418.134 2043.79 428.267Z" fill="#EC221F"/>
<path d="M1911.81 400.567C1913.82 402.7 1914.08 407.367 1914.08 438.567C1914.08 472.433 1913.95 474.3 1911.41 476.833C1911.41 476.833 1907.27 479.5 1908.74 479.5C1912.58 479.5 1917.42 479.5 1917.42 479.5C1917.42 479.5 1922.6 479.5 1926.1 479.5C1927.58 479.5 1923.43 476.833 1923.43 476.833C1921.03 474.433 1920.76 472.433 1920.76 456.833C1920.76 456.833 1920.76 441 1922.55 441C1931.41 441 1945.47 441 1945.47 441C1945.47 441 1959.47 441 1968.47 441C1970.18 441 1970.18 456.433 1970.18 456.433C1970.18 471.9 1969.91 473.633 1967.24 476.433C1967.24 476.433 1962.81 479.5 1964.43 479.5C1969.17 479.5 1972.71 479.5 1972.71 479.5C1972.71 479.5 1976.69 479.5 1980.99 479.5C1982.78 479.5 1978.19 475.9 1978.19 475.9C1975.52 472.433 1975.38 471.1 1975.52 435.9C1975.65 415.9 1975.98 403 1976.99 400.567C1978.08 397.907 1979.99 398.167 1977.99 398.167C1975.48 398.167 1978.72 398.167 1973.25 398.167C1973.25 398.167 1968.97 398.167 1965.47 398.167C1964.03 398.167 1967.43 399.326 1967.97 400.567C1969.47 404 1970.18 405.233 1970.18 420.833C1970.18 420.833 1970.18 437 1968.47 437C1961.96 437 1945.47 437 1945.47 437C1945.47 437 1931.33 437 1922.55 437C1921.05 437 1920.9 418.833 1920.9 418.833C1920.9 408.167 1920.9 401.015 1921.4 400.567C1922.9 399.22 1925.4 398.167 1923.9 398.167C1921.4 398.167 1915.69 398.167 1910.88 398.167C1908.38 398.167 1909.81 398.3 1911.81 400.567Z" fill="#EC221F"/>
<path d="M1824.74 400C1824.74 404 1824.45 402.983 1828.35 402.133C1831.25 401.5 1834.56 400.5 1843.77 400.5C1843.77 400.5 1856.26 400.5 1856.26 402C1856.26 412.5 1855.86 437.2 1855.86 437.2C1855.46 471.6 1855.86 475 1852.92 477.2C1852.92 477.2 1848.3 480 1849.78 480C1856.69 480 1858.8 480 1858.8 480C1858.8 480 1861.3 480 1867.21 480C1868.83 480 1864.3 477.2 1864.3 477.2C1860.8 475 1861.3 471.5 1861.47 436.934C1861.47 436.934 1861.47 416 1861.47 402C1861.47 400.5 1873.32 400.5 1873.32 400.5C1883.33 400.5 1887.34 401.5 1889.34 402.133C1893.85 404.713 1893.85 405 1893.85 400C1893.85 399 1893.64 398 1892.18 398C1884.34 398 1858.8 398 1858.8 398C1858.8 398 1834.09 398 1826.74 398C1824.74 398 1824.74 398.933 1824.74 400Z" fill="#EC221F"/>
<path d="M1725.78 400.8C1729.12 404.133 1729.38 407.067 1728.98 441.6C1728.58 471.6 1728.32 474.667 1726.05 477.2L1723.51 480H1731.92H1740.47L1737.53 477.333C1734.59 474.667 1734.59 473.867 1734.59 437.333V400H1740.34C1758.36 400.133 1767.58 409.467 1764.64 424.933C1763.57 431.067 1756.23 438.667 1751.55 438.667C1744.21 438.667 1743.54 440 1748.48 445.333C1750.89 448.133 1755.96 454.8 1759.7 460.267C1767.05 471.2 1773.05 476.933 1778.13 478C1779.87 478.4 1782.94 479.067 1785.07 479.467C1788.28 480.133 1788.15 479.867 1783.47 476.667C1777.46 472.533 1776.13 471.2 1764.51 455.6C1759.57 449.2 1754.63 444 1754.12 443.5C1752.62 441.5 1753.56 441.6 1757.03 440.667C1762.77 439.333 1766.38 436.4 1769.32 430.667C1772.79 423.733 1772.79 414 1769.32 408.267C1764.77 400.933 1757.83 398.667 1739.53 398.667C1725.11 398.667 1723.91 398.8 1725.78 400.8Z" fill="#EC221F"/>
<path d="M1659.47 397H1677H1698.53C1701.04 397 1700.54 396.9 1700.54 401.5C1700.54 406.1 1700.81 407 1698.53 403.5C1696.26 400 1689.99 400 1678.9 400H1668.49V419.333V438.667H1679.7C1688.25 438.667 1691.46 438.133 1693.06 436.533C1695.06 434.667 1695.2 434.933 1695.2 439.333C1695.2 443.733 1695.06 444 1693.06 442.133C1691.46 440.533 1688.25 440 1679.7 440H1668.49V458.8L1668.49 477L1681.57 476.933C1688.02 477 1696.02 476.762 1698.53 473C1700.54 470 1700.54 470 1700.54 474.5C1700.54 479 1701.04 479.467 1698.53 479.467H1679.3H1657.94L1660.61 476.133C1663.14 473.067 1663.28 470.8 1663.14 436.4C1663.01 416.4 1662.48 400 1661.47 399C1660.97 398 1658.47 397 1659.47 397Z" fill="#EC221F"/>
<path d="M1571.33 400C1571.33 404 1571.04 402.983 1574.93 402.133C1577.84 401.5 1581.14 400.5 1590.36 400.5C1590.36 400.5 1602.85 400.5 1602.85 402C1602.85 412.5 1602.45 437.2 1602.45 437.2C1602.05 471.6 1602.45 475 1599.51 477.2C1599.51 477.2 1594.89 480 1596.37 480C1603.28 480 1605.38 480 1605.38 480C1605.38 480 1607.89 480 1613.8 480C1615.42 480 1610.89 477.2 1610.89 477.2C1607.39 475 1607.89 471.5 1608.06 436.934C1608.06 436.934 1608.06 416 1608.06 402C1608.06 400.5 1619.91 400.5 1619.91 400.5C1629.92 400.5 1633.93 401.5 1635.93 402.133C1640.44 404.713 1640.44 405 1640.44 400C1640.44 399 1640.23 398 1638.77 398C1630.93 398 1605.38 398 1605.38 398C1605.38 398 1580.68 398 1573.33 398C1571.33 398 1571.33 398.933 1571.33 400Z" fill="#EC221F"/>
<path d="M1508.43 400.8C1511.76 404.133 1512.03 407.067 1511.63 441.6C1511.23 471.6 1510.96 474.667 1508.69 477.2L1506.16 480H1514.57H1523.12L1520.18 477.333C1517.24 474.667 1517.24 473.867 1517.24 437.333V400H1522.98C1541.01 400.133 1550.23 409.467 1547.29 424.933C1546.22 431.067 1538.88 438.667 1534.2 438.667C1526.86 438.667 1526.19 440 1531.13 445.333C1533.53 448.133 1538.61 454.8 1542.35 460.267C1549.69 471.2 1555.7 476.933 1560.78 478C1562.51 478.4 1565.59 479.067 1567.72 479.467C1570.93 480.133 1570.79 479.867 1566.12 476.667C1560.11 472.533 1558.77 471.2 1547.16 455.6C1542.21 449.2 1537.27 444 1536.77 443.5C1535.27 441.5 1536.2 441.6 1539.68 440.667C1545.42 439.333 1549.02 436.4 1551.96 430.667C1555.44 423.733 1555.44 414 1551.96 408.267C1547.42 400.933 1540.48 398.667 1522.18 398.667C1507.76 398.667 1506.56 398.8 1508.43 400.8Z" fill="#EC221F"/>
<path d="M1447.16 406.867C1430.2 448.467 1417.93 472.562 1416.04 476.467C1414.57 479.5 1411.36 480.2 1413.57 480.2C1416.58 480.2 1426.33 480.2 1426.33 480.2C1431.6 480.2 1427.29 479.245 1425.09 476.467C1424.09 475.2 1424.32 472.333 1428.86 461.133C1428.86 461.133 1429.99 456.804 1432.1 453C1433.1 451.2 1449.26 451.2 1449.26 451.2C1449.26 451.2 1466.16 451.147 1466.79 453C1468.16 457 1469.66 461.133 1469.66 461.133C1473.67 471 1475.45 474 1473.67 476.467C1472.2 478.5 1467.16 479.8 1473.17 479.8C1473.17 479.8 1483.19 479.8 1489.1 479.8C1490.8 479.8 1486.32 477.467 1484.69 476.467C1479.18 473.085 1478.68 469 1454.91 408.2C1454.91 408.2 1451.43 398.067 1450.77 398.067C1450.1 398.067 1447.16 406.867 1447.16 406.867ZM1457.84 429.267C1461.58 439.267 1463.29 443.7 1464.79 447.7C1465.35 449.2 1458.18 449.2 1449.76 449.2C1441.35 449.2 1434.31 449.2 1434.74 447.7C1435.74 444.2 1436.48 442.067 1439.55 434.333C1442.25 426.7 1446.63 414.467 1446.63 414.467C1447.16 412.7 1448.13 410.867 1450.1 410.867C1450.63 410.867 1453.97 419.134 1457.84 429.267Z" fill="#EC221F"/>
<path d="M1320.92 399.33C1319.85 399.33 1318.78 417.863 1316.25 437.996C1312.11 470.663 1310.86 472.879 1308.4 475.33C1304.4 479.33 1299.89 480 1317.98 479.33C1321.92 479.184 1320.42 477.872 1317.85 475.33C1315.98 473.481 1316.91 468.263 1318.92 447.063C1320.25 432.263 1321.48 421.022 1321.92 418.83C1323.03 413.33 1324.93 418.83 1328.43 427.73C1351.14 477.196 1350.47 476.396 1354.31 476.396C1355.98 476.396 1362.32 456.13 1375.41 427.73C1380.02 418.83 1382.81 413.83 1383.52 418.83C1384.02 422.33 1384.36 428.53 1385.83 444.396C1388.36 469.463 1389.77 472.663 1388.03 475.33C1386.29 478.263 1383.52 479.33 1386.76 479.33C1386.76 479.33 1394.54 479.33 1401.05 479.33C1403.01 479.33 1399.05 477.83 1398.05 475.33C1396.75 472.089 1395.31 468.396 1391.84 439.996C1388.03 408.873 1387.53 399.33 1385.83 399.33C1383.25 399.33 1370.87 431.863 1359.38 457.063C1357.11 461.996 1356.14 465.996 1354.31 465.996C1352.47 465.996 1346.7 452.93 1338.28 433.996C1328.93 413.196 1323.43 399.33 1320.92 399.33Z" fill="#EC221F"/>
<path d="M1261.09 400C1252.54 405.2 1249.21 415.733 1253.48 423.867C1254.41 425.867 1261.23 433.2 1268.44 440C1282.99 453.733 1284.73 456 1284.86 462.4C1284.86 471.867 1277.38 478.667 1266.97 478.667C1259.49 478.667 1254.31 472.5 1251.48 466.667C1250.5 464.66 1250.31 465 1250.31 474.5C1250.31 476.5 1251.52 476.467 1254.31 477.867C1260.9 481.167 1275.78 480.8 1280.86 477.867C1288.34 473.333 1292.08 461.2 1288.74 452.4C1288.07 450.4 1280.46 442 1272.04 434C1257.49 420 1256.82 419.067 1256.82 414C1256.82 407.6 1259.36 403.467 1265.1 400.533C1270.31 397.867 1277.02 399.224 1281.66 402.8C1283.86 404.5 1284.86 407.867 1284.86 405.733C1284.86 403.6 1284.86 401 1284.86 401C1284.86 399.5 1284.06 398.8 1280.72 398.133C1272.98 396.667 1265.5 397.333 1261.09 400Z" fill="#EC221F"/>
<path d="M1199.22 479C1201.16 479 1202.73 477.433 1202.73 475.5C1202.73 473.567 1201.16 472 1199.22 472C1197.29 472 1195.72 473.567 1195.72 475.5C1195.72 477.433 1197.29 479 1199.22 479Z" fill="#EC221F"/>
<path d="M1126.61 400C1126.61 404 1126.32 402.983 1130.21 402.133C1133.12 401.5 1136.42 400.5 1145.64 400.5C1145.64 400.5 1158.13 400.5 1158.13 402C1158.13 412.5 1157.72 437.2 1157.72 437.2C1157.32 471.6 1157.72 475 1154.79 477.2C1154.79 477.2 1150.17 480 1151.65 480C1158.56 480 1160.66 480 1160.66 480C1160.66 480 1163.17 480 1169.08 480C1170.7 480 1166.17 477.2 1166.17 477.2C1162.67 475 1163.17 471.5 1163.33 436.933C1163.33 436.933 1163.33 416 1163.33 402C1163.33 400.5 1175.19 400.5 1175.19 400.5C1185.2 400.5 1189.21 401.5 1191.21 402.133C1195.72 404.713 1195.72 405 1195.72 400C1195.72 399 1195.51 398 1194.05 398C1186.2 398 1160.66 398 1160.66 398C1160.66 398 1135.96 398 1128.61 398C1126.61 398 1126.61 398.933 1126.61 400Z" fill="#EC221F"/>
<path d="M1065.71 400.8C1069.05 404.133 1069.31 407.067 1068.91 441.6C1068.51 471.6 1068.24 474.667 1065.97 477.2L1063.44 480H1071.85H1080.4L1077.46 477.333C1074.52 474.667 1074.52 473.867 1074.52 437.333V400H1080.26C1098.29 400.133 1107.51 409.467 1104.57 424.933C1103.5 431.067 1096.16 438.667 1091.48 438.667C1084.14 438.667 1083.47 440 1088.41 445.333C1090.81 448.133 1095.89 454.8 1099.63 460.267C1106.97 471.2 1112.98 476.933 1118.06 478C1119.8 478.4 1122.87 479.067 1125 479.467C1128.21 480.133 1128.08 479.867 1123.4 476.667C1117.39 472.533 1116.06 471.2 1104.44 455.6C1099.5 449.2 1094.55 444 1094.05 443.5C1092.55 441.5 1093.49 441.6 1096.96 440.667C1102.7 439.333 1106.31 436.4 1109.24 430.667C1112.72 423.733 1112.72 414 1109.24 408.267C1104.7 400.933 1097.76 398.667 1079.46 398.667C1065.04 398.667 1063.84 398.8 1065.71 400.8Z" fill="#EC221F"/>
<path d="M1003.44 405.867C986.48 447.467 974.214 471.562 972.323 475.467C970.854 478.5 967.643 479.2 969.853 479.2C972.858 479.2 982.607 479.2 982.607 479.2C987.882 479.2 983.568 478.245 981.371 475.467C980.37 474.2 980.604 471.333 985.144 460.133C985.144 460.133 986.266 455.804 988.383 452C989.384 450.2 1005.54 450.2 1005.54 450.2C1005.54 450.2 1022.44 450.147 1023.07 452C1024.44 456 1025.94 460.133 1025.94 460.133C1029.95 470 1031.73 473 1029.95 475.467C1028.48 477.5 1023.44 478.8 1029.45 478.8C1029.45 478.8 1039.47 478.8 1045.38 478.8C1047.08 478.8 1042.6 476.467 1040.97 475.467C1035.46 472.086 1034.96 468 1011.19 407.2C1011.19 407.2 1007.71 397.067 1007.05 397.067C1006.38 397.067 1003.44 405.867 1003.44 405.867ZM1014.12 428.267C1017.86 438.267 1019.57 442.7 1021.07 446.7C1021.63 448.2 1014.46 448.2 1006.04 448.2C997.631 448.2 990.591 448.2 991.02 446.7C992.022 443.2 992.757 441.067 995.828 433.333C998.533 425.7 1002.91 413.467 1002.91 413.467C1003.44 411.7 1004.41 409.867 1006.38 409.867C1006.91 409.867 1010.25 418.133 1014.12 428.267Z" fill="#EC221F"/>
<path d="M902.243 401.5C904.748 400.235 909.004 398.6 911.258 398C919.146 395.9 931.29 396.511 943.744 400.867C949.653 402.933 951.089 404.867 951.089 405.867V412.867C951.089 415.867 948.818 411 947.216 409.2C939.875 400.955 935.598 400.71 933.794 400.133C932.125 399.6 919.463 397.083 911.424 400.5C907.238 402.279 905.63 402.917 901.742 406.5C891.741 415.717 889.007 424.266 889.656 441.2C890.075 452.133 890.721 454.801 894.063 461.067C896.197 465.068 899.672 469.467 901.675 470.933C905.181 473.5 907.282 474.855 911.291 476.533C916.919 478.89 927.874 479.146 934.929 477.067C941.898 475.013 949.406 465.827 952.825 459C955.416 453.826 954.828 459.167 954.828 462.5C954.828 465 944.311 475 939.47 477.2C934.849 479.3 931.057 480.057 923.177 480C912.493 479.923 904.497 477.067 900.24 474.5C892.728 469.971 889.207 465.56 885.649 458C883.998 454.492 882.181 447.866 881.776 443.2C880.979 434 881.062 428.5 883.713 422C888.402 410.5 893.129 406.102 902.243 401.5Z" fill="#EC221F"/>
<path d="M789.059 397H806.588H828.123C830.627 397 830.126 396.9 830.126 401.5C830.126 406.1 830.401 407 828.123 403.5C825.844 400 819.575 400 808.491 400H798.074V419.333V438.667H809.292C817.839 438.667 821.044 438.133 822.647 436.533C824.65 434.667 824.784 434.933 824.784 439.333C824.784 443.733 824.65 444 822.647 442.133C821.044 440.533 817.839 440 809.292 440H798.074V458.8L798.074 477L811.161 476.933C817.606 477 825.611 476.762 828.123 473C830.126 470 830.126 470 830.126 474.5C830.126 479 830.627 479.467 828.123 479.467H808.891H787.523L790.194 476.133C792.732 473.067 792.865 470.8 792.732 436.4C792.598 416.4 792.064 400 791.063 399C790.562 398 788.058 397 789.059 397Z" fill="#EC221F"/>
<path d="M690.967 434.7C691.368 470.834 689.898 472.5 688.563 475.767C687.873 477.454 683.346 480.5 685.391 480.5C689.091 480.5 695.199 480.5 697.911 480.5C701.417 480.5 699.067 479.805 697.377 476.967C695.908 474.5 694.987 470.3 694.306 443.634C693.785 423.233 693.905 412.834 694.84 412.834C696.042 412.834 731.699 451.6 751.999 474C756.006 478.421 758.51 482.464 758.51 479C758.51 469.233 758.502 455.007 758.41 439.634C758.276 417.5 757.508 404.5 759.011 401C760.159 398.324 765.02 396 761.515 396C758.009 396 756.507 396 750.998 396C745.489 396 751.138 399.187 752.5 401C754.002 403 754.054 405.367 754.136 432.834C754.187 450.033 754.52 463.958 753.468 463.767C751.999 463.5 744.988 456 736.374 446.3C724.428 432.849 717.443 425.5 705.424 412C694.461 399.687 690.566 393.5 690.566 397.5C690.566 411 690.806 420.173 690.967 434.7Z" fill="#EC221F"/>
<path d="M647.329 398.667C644.325 398.667 648.164 399.5 648.832 401.5C650.501 406.5 650.367 416.533 650.501 436.8C650.634 473.2 650.334 474.769 648.832 477.2C647.83 478.821 646.087 480 647.329 480C649.834 480 653.172 480 653.172 480C653.172 480 656.845 480 659.85 480C661.196 480 658.738 478.843 657.847 477.2C656.11 474 656.51 471.6 656.11 441.6C655.835 421 656.11 405 657.847 401.5C658.839 399.5 662.354 398.667 659.85 398.667C655.176 398.667 651.336 398.667 647.329 398.667Z" fill="#EC221F"/>
<path d="M583.726 403.5C582.93 401.115 579.211 398.667 580.887 398.667H594.243C598.751 398.667 594.243 399.5 592.24 403.5C590.798 406.379 591.072 418 591.072 439.6V472C591.072 476.533 599.753 476.533 603.759 476.533C615.278 476.533 620.72 474 623.791 471.333C626.863 468.667 626.624 468.5 624.726 474C624.554 474.5 622.223 479.333 620.787 479.333H601.355H580.722C579.508 479.333 581.723 477.5 582.224 476.533C584.055 473.001 585.195 470.667 585.062 436.4C584.928 416.4 585.062 407.5 583.726 403.5Z" fill="#EC221F"/>
<path d="M484.632 434.7C485.033 470.834 483.564 472.5 482.228 475.767C481.538 477.454 477.012 480.5 479.056 480.5C482.756 480.5 488.865 480.5 491.577 480.5C495.082 480.5 492.732 479.804 491.042 476.967C489.573 474.5 488.652 470.3 487.971 443.634C487.45 423.233 487.57 412.834 488.505 412.834C489.707 412.834 525.365 451.6 545.664 474C549.671 478.421 552.175 482.464 552.175 479C552.175 469.233 552.168 455.007 552.075 439.634C551.941 417.5 551.173 404.5 552.676 401C553.824 398.324 558.686 396 555.18 396C551.674 396 550.172 396 544.663 396C539.154 396 544.803 399.187 546.165 401C547.668 403 547.719 405.367 547.801 432.834C547.853 450.034 548.185 463.958 547.133 463.767C545.664 463.5 538.653 456 530.039 446.3C518.093 432.849 511.108 425.5 499.089 412C488.126 399.687 484.231 393.5 484.231 397.5C484.231 411 484.471 420.173 484.632 434.7Z" fill="#EC221F"/>
<path fill-rule="evenodd" clip-rule="evenodd" d="M386.405 418C390.946 409.067 398.692 402.4 408.441 399.2C416.988 396.4 434.216 397.333 441.561 401.067C449.174 404.934 457.506 413.5 460.526 420.134C464.532 428.934 464.265 448.8 459.991 458C453.72 471.5 447.505 475.067 447.505 475.067C447.505 475.067 447.004 475.467 443.498 477.5C438.991 480 432.38 481 422.464 481C412.982 481 409.443 480.434 403.433 477.5C395.687 473.767 388.909 467 384.903 458.5C384.722 457.959 384.509 457.434 384.275 456.857C383.211 454.24 381.717 450.564 380.896 439.5C380.896 428.759 382.377 425.869 385.678 419.424C385.911 418.969 386.154 418.495 386.405 418ZM446.002 409.334C443.999 407.334 434.984 401.067 423.466 401.067C413.861 401.067 405.937 402.884 398.926 410C386.405 422.709 383.883 456.436 398.425 469C402.885 472.853 407.561 474.312 409.319 474.86C409.615 474.953 409.828 475.019 409.944 475.067C416.087 477.6 433.482 478.5 440.493 473.5C444.568 470.594 446.002 469 446.002 469C453.08 461.4 455.25 454 455.918 441.334C456.586 427.867 454.155 417.473 446.002 409.334Z" fill="#EC221F"/>
<path d="M273.422 400.8C276.761 404.133 277.028 407.067 276.627 441.6C276.227 471.6 275.96 474.667 273.689 477.2L271.152 480H279.565H288.113L285.174 477.333C282.236 474.667 282.236 473.867 282.236 437.333V400H287.979C306.008 400.133 315.223 409.467 312.285 424.933C311.217 431.067 303.871 438.667 299.197 438.667C291.852 438.667 291.184 440 296.126 445.333C298.53 448.133 303.604 454.8 307.344 460.267C314.689 471.2 320.699 476.933 325.774 478C327.51 478.4 330.582 479.067 332.718 479.467C335.923 480.133 335.79 479.867 331.116 476.667C325.106 472.533 323.77 471.2 312.152 455.6C307.21 449.2 302.269 444 301.768 443.5C300.266 441.5 301.2 441.6 304.673 440.667C310.415 439.333 314.021 436.4 316.959 430.667C320.432 423.733 320.432 414 316.959 408.267C312.419 400.933 305.474 398.667 287.178 398.667C272.754 398.667 271.552 398.8 273.422 400.8Z" fill="#EC221F"/>
<path d="M179.571 398.5C178.569 398.5 180.572 399.633 181.073 400.633C181.574 401.633 182.943 413.167 182.943 429.433C183.21 452.233 183.61 459.967 185.213 463.7C189.887 474.767 198.568 479.7 213.793 479.833C229.017 479.967 240.183 476.278 243.174 464.333C244.175 460.333 244.509 431.7 244.509 431.7C245.043 406.367 245.177 403 246.679 400.5C248.182 399 249.684 398.5 247.18 398.5C243.574 398.5 239.783 398.5 237.665 398.5C235.546 398.5 238.166 398.833 239.167 400.5C240.97 403.5 240.65 447.807 240.503 455.833C240.227 470.833 233.157 475.833 215.128 476.333C211.248 476.441 205.956 476.087 203.61 474.833C197.852 471.758 191.757 466.9 189.887 460.233C189.086 457.433 188.418 443.3 188.418 428.9C188.418 406.9 189.086 402.833 190.555 400.633C191.59 398.833 193.092 398.5 191.089 398.5C186.816 398.5 181.741 398.5 179.571 398.5Z" fill="#EC221F"/>
<path fill-rule="evenodd" clip-rule="evenodd" d="M83.9147 418C88.4554 409.067 96.2013 402.4 105.95 399.2C114.498 396.4 131.726 397.333 139.071 401.067C146.683 404.934 155.015 413.5 158.035 420.133C162.041 428.933 161.774 448.8 157.501 458C151.23 471.5 145.014 475.067 145.014 475.067C145.014 475.067 144.513 475.467 141.007 477.5C136.5 480 129.889 481 119.973 481C110.491 481 106.952 480.433 100.942 477.5C93.1964 473.767 86.4188 467 82.4123 458.5C82.2315 457.959 82.0181 457.434 81.7839 456.857C80.7202 454.24 79.2266 450.564 78.4058 439.5C78.4058 428.759 79.8859 425.869 83.1874 419.424C83.4206 418.969 83.6632 418.495 83.9147 418ZM143.511 409.333C141.508 407.333 132.494 401.067 120.975 401.067C111.371 401.067 103.446 402.884 96.435 410C83.9147 422.709 81.392 456.436 95.9342 469C100.394 472.853 105.07 474.312 106.829 474.86C107.124 474.953 107.337 475.019 107.453 475.067C113.596 477.6 130.991 478.5 138.002 473.5C142.078 470.594 143.511 469 143.511 469C150.59 461.4 152.76 454 153.427 441.333C154.095 427.867 151.664 417.473 143.511 409.333Z" fill="#EC221F"/>
<path d="M4.2856 403C2.78314 400.75 0.27917 399.5 0.779823 398.667H17.8076C19.8109 398.667 17.2804 399 16.3052 401.467C15.3036 404 21.8141 417 21.8141 417C24.1507 421.199 30.0921 434.105 33.4805 439.063C33.8263 439.569 34.5331 439.586 34.9037 439.098C35.4373 438.395 36.1782 437.318 36.8384 436C38.0404 433.6 47.5224 417.467 47.5224 417.467C53.7993 406.267 54.8677 403.733 53.5322 401.467C52.1967 399.2 49.8596 398.667 51.8629 398.667H67.2878C68.3897 399.5 64.3831 401.5 62.3798 403C60.8774 404.5 59.1413 406.133 57.5387 408.667C55.8693 411 55.8693 411 54.3668 413C51.3619 418 39.3425 438.5 37.84 441C36.4932 443.241 36.3376 443.792 36.3376 444.5C36.3376 445.5 36.1707 447.733 36.1707 458C36.1707 473.333 36.4378 474.8 39.1088 477.333L42.0469 480H32.9655H23.884L26.9557 477.467C29.8938 475.067 30.1609 473.867 30.5615 459.733C30.5615 459.733 30.8286 450.45 30.8286 444.5C30.8286 443.89 31.3295 443 19.4769 425.333C13.0665 414.667 5.15958 404.309 4.2856 403Z" fill="#EC221F"/>
<path d="M1160.16 141.333C1158.16 141.333 1158.16 146.5 1158.16 149C1158.16 151.5 1158.16 156 1160.16 156C1171.01 156 1215.83 156 1229.27 156C1230.78 156 1231.28 150.5 1231.28 148.5C1231.28 146.5 1230.78 141.333 1229.27 141.333C1202.7 141.333 1164.5 141.333 1160.16 141.333Z" fill="url(#paint12_linear_0_1)"/>
<defs>
<linearGradient id="paint0_linear_0_1" x1="2209.41" y1="203.124" x2="2064.08" y2="110.643" gradientUnits="userSpaceOnUse">
<stop stop-color="#FF6000"/>
<stop offset="1" stop-color="#FFB600"/>
</linearGradient>
<linearGradient id="paint1_linear_0_1" x1="2031.55" y1="66.9935" x2="2214.06" y2="187.173" gradientUnits="userSpaceOnUse">
<stop stop-color="#184E77"/>
<stop offset="1" stop-color="#34A0A4"/>
</linearGradient>
<linearGradient id="paint2_linear_0_1" x1="1984" y1="1.20078e-07" x2="2248.09" y2="288.639" gradientUnits="userSpaceOnUse">
<stop stop-color="#FF6000"/>
<stop offset="0.254808" stop-color="#FFB600"/>
<stop offset="0.749925" stop-color="#34A0A4"/>
<stop offset="1" stop-color="#184E77"/>
</linearGradient>
<linearGradient id="paint3_linear_0_1" x1="1805.71" y1="133.533" x2="1955.28" y2="133.533" gradientUnits="userSpaceOnUse">
<stop stop-color="#184E77"/>
<stop offset="1" stop-color="#34A0A4"/>
</linearGradient>
<linearGradient id="paint4_linear_0_1" x1="1636.1" y1="135.321" x2="1809.72" y2="135.321" gradientUnits="userSpaceOnUse">
<stop stop-color="#184E77"/>
<stop offset="1" stop-color="#34A0A4"/>
</linearGradient>
<linearGradient id="paint5_linear_0_1" x1="1439.09" y1="133.376" x2="1619.36" y2="133.376" gradientUnits="userSpaceOnUse">
<stop stop-color="#184E77"/>
<stop offset="1" stop-color="#34A0A4"/>
</linearGradient>
<linearGradient id="paint6_linear_0_1" x1="1262.16" y1="135.561" x2="1422.55" y2="135.561" gradientUnits="userSpaceOnUse">
<stop stop-color="#184E77"/>
<stop offset="1" stop-color="#34A0A4"/>
</linearGradient>
<linearGradient id="paint7_linear_0_1" x1="1005.74" y1="133.533" x2="1155.32" y2="133.533" gradientUnits="userSpaceOnUse">
<stop stop-color="#FF6000"/>
<stop offset="1" stop-color="#FFB600"/>
</linearGradient>
<linearGradient id="paint8_linear_0_1" x1="834.8" y1="135.35" x2="1008.41" y2="135.35" gradientUnits="userSpaceOnUse">
<stop stop-color="#FF6000"/>
<stop offset="1" stop-color="#FFB600"/>
</linearGradient>
<linearGradient id="paint9_linear_0_1" x1="638.482" y1="133.333" x2="818.774" y2="133.333" gradientUnits="userSpaceOnUse">
<stop stop-color="#FF6000"/>
<stop offset="1" stop-color="#FFB600"/>
</linearGradient>
<linearGradient id="paint10_linear_0_1" x1="408.084" y1="135.928" x2="635.16" y2="135.928" gradientUnits="userSpaceOnUse">
<stop stop-color="#FF6000"/>
<stop offset="1" stop-color="#FFB600"/>
</linearGradient>
<linearGradient id="paint11_linear_0_1" x1="275.226" y1="135.479" x2="386.606" y2="135.479" gradientUnits="userSpaceOnUse">
<stop stop-color="#FF6000"/>
<stop offset="1" stop-color="#FFB600"/>
</linearGradient>
<linearGradient id="paint12_linear_0_1" x1="1158.16" y1="148.666" x2="1231.28" y2="148.666" gradientUnits="userSpaceOnUse">
<stop stop-color="#FF6000"/>
<stop offset="0.25" stop-color="#FFB600"/>
<stop offset="0.75" stop-color="#34A0A4"/>
<stop offset="1" stop-color="#184E77"/>
</linearGradient>
</defs>
</svg>
